<svg id="Capa_1" enable-background="new 0 0 496.175 496.175" height="512" viewBox="0 0 496.175 496.175" width="512" xmlns="http://www.w3.org/2000/svg"><g><path d="m203.74 481.711v-47.791c0-11.871-9.599-21.508-21.47-21.554l-74.58-.292c-12.782-.05-23.681-9.271-25.849-21.868l-12.69-73.766h-27.974c-3.397 0-6.15-2.753-6.15-6.15 0-23.513 6.578-46.556 18.99-66.526l9.101-14.643c1.249-2.009 1.824-4.365 1.642-6.723l-3.416-44.206c-7.426-96.11 68.558-178.192 164.954-178.192 117.757 0 202.185 113.562 168.262 226.328l-34.465 114.569v140.045c0 7.954-6.422 14.415-14.376 14.463l-127.429.769c-8.021.049-14.55-6.441-14.55-14.463z" fill="#ffcebf"/><path d="m252.065 488.159v-84.989c0-11.871-9.599-21.508-21.47-21.554l-74.58-.292c-12.782-.05-23.681-9.271-25.849-21.868l-7.948-46.199c-2.74-15.928-16.554-27.568-32.716-27.568-3.398 0-6.151-2.781-6.15-6.179.005-23.503 6.583-46.535 18.99-66.497l9.101-14.643c1.249-2.009 1.824-4.365 1.642-6.723l-3.416-44.206c-4.105-53.12 17.284-101.954 53.503-135.014-64.086 26.47-107.528 91.975-101.828 165.74l3.416 44.206c.182 2.359-.393 4.714-1.642 6.723l-9.101 14.643c-12.412 19.969-18.99 43.013-18.99 66.526 0 3.397 2.753 6.15 6.15 6.15h27.973l12.691 73.767c2.167 12.597 13.067 21.818 25.849 21.868l74.58.292c11.871.046 21.47 9.683 21.47 21.554v51.989c0 5.708 4.645 10.325 10.353 10.29l41.526-.25c-2.173-1.887-3.554-4.662-3.554-7.766z" fill="#ffb09e"/><circle cx="230.746" cy="173.748" fill="#fd8087" r="125.936"/><path d="m164.119 173.748c0-59.337 41.057-109.086 96.298-122.42-9.511-2.296-19.455-3.515-29.671-3.515-69.552 0-125.936 56.383-125.936 125.936s56.383 125.936 125.936 125.936c10.216 0 20.161-1.224 29.671-3.52-55.241-13.337-96.298-63.08-96.298-122.417z" fill="#fe646f"/><path d="m239.284 239.557 59.366-65.137c15.016-16.475 14.428-41.844-1.334-57.606l-.139-.139c-16.293-16.294-42.71-16.294-59.004 0l-7.451 7.451-7.601-7.571c-16.303-16.237-42.674-16.21-58.944.06-15.843 15.843-16.344 41.37-1.136 57.823l60.246 65.176c4.318 4.672 11.711 4.646 15.997-.057z" fill="#f9f7f8"/><g><g><path d="m424.379 75.007c-2.16 0-4.303-.928-5.786-2.724-2.638-3.193-2.188-7.92 1.006-10.559l12.147-10.035c3.191-2.638 7.92-2.189 10.559 1.006 2.638 3.193 2.188 7.92-1.006 10.559l-12.148 10.036c-1.397 1.155-3.089 1.717-4.772 1.717z" fill="#fef48b"/></g><g><path d="m391.632 44.906c-.786 0-1.586-.125-2.373-.387-3.93-1.31-6.053-5.558-4.743-9.487l5.281-15.844c1.31-3.93 5.555-6.054 9.487-4.743 3.93 1.31 6.053 5.558 4.743 9.487l-5.281 15.844c-1.048 3.143-3.974 5.13-7.114 5.13z" fill="#fef48b"/></g><g><path d="m453.648 118.314h-17.125c-4.143 0-7.5-3.357-7.5-7.5s3.357-7.5 7.5-7.5h17.125c4.143 0 7.5 3.357 7.5 7.5s-3.358 7.5-7.5 7.5z" fill="#fef48b"/></g></g></g></svg>